<svg width="29" height="29" viewBox="0 0 29 29" fill="none" xmlns="http://www.w3.org/2000/svg">
<g clip-path="url(#clip0)">
<path d="M27.9622 19.3755C27.7446 19.1579 27.4495 19.0357 27.1418 19.0357C26.8341 19.0357 26.5389 19.1579 26.3213 19.3755L19.7914 25.9065L16.6721 22.8278C16.4567 22.607 16.1624 22.4808 15.8539 22.477C15.5454 22.4732 15.248 22.5921 15.0272 22.8075C14.8064 23.023 14.6802 23.3173 14.6764 23.6258C14.6725 23.9343 14.7914 24.2316 15.0069 24.4525L18.1912 27.5857C18.3909 27.801 18.6322 27.9737 18.9004 28.0934C19.1686 28.2131 19.4583 28.2772 19.752 28.282H19.7903C20.0781 28.2829 20.3633 28.2267 20.6293 28.1165C20.8952 28.0064 21.1366 27.8445 21.3395 27.6402L27.9622 21.0164C28.1798 20.7987 28.302 20.5036 28.302 20.1959C28.302 19.8882 28.1798 19.5931 27.9622 19.3755Z" fill="#9B51E0"/>
<path d="M13.3209 25.9134C11.0801 25.7086 8.94714 24.8568 7.18174 23.4617C5.41633 22.0665 4.09461 20.1882 3.37747 18.0555C2.66034 15.9227 2.57873 13.6274 3.14258 11.449C3.70643 9.27071 4.89141 7.30328 6.55327 5.78628C8.21514 4.26928 10.2822 3.26815 12.5028 2.90476C14.7234 2.54137 17.0017 2.8314 19.0604 3.73954C21.1192 4.64768 22.8695 6.13476 24.0983 8.01974C25.327 9.90472 25.9813 12.1063 25.9814 14.3564C25.9814 14.7127 25.964 15.0654 25.9339 15.4136C25.9197 15.5657 25.9356 15.7192 25.9809 15.8651C26.0262 16.0111 26.0998 16.1467 26.1976 16.2641C26.2954 16.3815 26.4154 16.4785 26.5508 16.5494C26.6861 16.6203 26.8342 16.6638 26.9864 16.6773C27.1385 16.6926 27.2921 16.6774 27.4383 16.6325C27.5844 16.5876 27.7201 16.514 27.8374 16.4159C27.9547 16.3179 28.0512 16.1974 28.1213 16.0615C28.1913 15.9257 28.2336 15.7772 28.2455 15.6248C28.2826 15.2035 28.3023 14.7823 28.3023 14.3564C28.3022 11.6562 27.517 9.01419 26.0424 6.75217C24.5677 4.49014 22.4672 2.70565 19.9966 1.61594C17.526 0.52624 14.7919 0.178336 12.1271 0.61459C9.4623 1.05084 6.98184 2.25244 4.98768 4.07307C2.99353 5.89371 1.57172 8.25484 0.895349 10.869C0.21898 13.4832 0.317235 16.2376 1.17815 18.7969C2.03907 21.3563 3.6255 23.6101 5.74431 25.284C7.86312 26.9579 10.4229 27.9797 13.112 28.225C13.148 28.225 13.1828 28.225 13.2176 28.225C13.5254 28.2387 13.826 28.1296 14.0533 27.9216C14.2806 27.7137 14.416 27.424 14.4297 27.1162C14.4434 26.8084 14.3343 26.5078 14.1263 26.2805C13.9184 26.0532 13.6286 25.9178 13.3209 25.9041V25.9134Z" fill="#9B51E0"/>
<path d="M13.2163 8.55425V13.8761L10.075 17.0175C9.96414 17.1245 9.87573 17.2526 9.81492 17.3941C9.7541 17.5357 9.72209 17.688 9.72075 17.8421C9.71941 17.9962 9.74877 18.149 9.80712 18.2916C9.86547 18.4342 9.95163 18.5638 10.0606 18.6727C10.1696 18.7817 10.2991 18.8678 10.4417 18.9262C10.5843 18.9845 10.7372 19.0139 10.8912 19.0126C11.0453 19.0112 11.1976 18.9792 11.3392 18.9184C11.4808 18.8576 11.6088 18.7692 11.7159 18.6583L15.1972 15.177C15.4149 14.9594 15.5372 14.6643 15.5372 14.3565V8.55425C15.5372 8.24648 15.415 7.95132 15.1974 7.73369C14.9797 7.51606 14.6846 7.3938 14.3768 7.3938C14.069 7.3938 13.7738 7.51606 13.5562 7.73369C13.3386 7.95132 13.2163 8.24648 13.2163 8.55425Z" fill="#9B51E0"/>
</g>
<defs>
<clipPath id="clip0">
<rect width="27.8509" height="27.8509" fill="white" transform="translate(0.451416 0.43103)"/>
</clipPath>
</defs>
</svg>
