<svg width="25" height="29" viewBox="0 0 25 29" fill="none" xmlns="http://www.w3.org/2000/svg">
<path d="M18.2053 16.6638C18.2053 16.9715 18.083 17.2667 17.8654 17.4843C17.6478 17.702 17.3526 17.8242 17.0448 17.8242H7.76119C7.45342 17.8242 7.15826 17.702 6.94063 17.4843C6.723 17.2667 6.60074 16.9715 6.60074 16.6638C6.60074 16.356 6.723 16.0608 6.94063 15.8432C7.15826 15.6256 7.45342 15.5033 7.76119 15.5033H17.0448C17.3526 15.5033 17.6478 15.6256 17.8654 15.8432C18.083 16.0608 18.2053 16.356 18.2053 16.6638ZM13.5635 20.1451H7.76119C7.45342 20.1451 7.15826 20.2674 6.94063 20.485C6.723 20.7026 6.60074 20.9978 6.60074 21.3056C6.60074 21.6134 6.723 21.9085 6.94063 22.1262C7.15826 22.3438 7.45342 22.466 7.76119 22.466H13.5635C13.8712 22.466 14.1664 22.3438 14.384 22.1262C14.6017 21.9085 14.7239 21.6134 14.7239 21.3056C14.7239 20.9978 14.6017 20.7026 14.384 20.485C14.1664 20.2674 13.8712 20.1451 13.5635 20.1451ZM24.0076 12.5848V22.466C24.0057 24.0043 23.3938 25.4791 22.3061 26.5668C21.2184 27.6546 19.7436 28.2665 18.2053 28.2683H6.60074C5.06245 28.2665 3.58768 27.6546 2.49994 26.5668C1.41221 25.4791 0.800305 24.0043 0.798462 22.466V6.21966C0.800305 4.68137 1.41221 3.20661 2.49994 2.11887C3.58768 1.03113 5.06245 0.419228 6.60074 0.417385H11.8402C12.9074 0.414638 13.9645 0.623468 14.9505 1.0318C15.9364 1.44013 16.8317 2.03986 17.5844 2.79632L21.6275 6.84167C22.3844 7.59392 22.9845 8.48888 23.393 9.47471C23.8016 10.4605 24.0105 11.5176 24.0076 12.5848ZM15.9436 4.4372C15.5783 4.08345 15.1683 3.77914 14.7239 3.53205V8.54057C14.7239 8.84834 14.8462 9.14351 15.0638 9.36114C15.2814 9.57877 15.5766 9.70103 15.8844 9.70103H20.8929C20.6457 9.25679 20.3409 8.8471 19.9866 8.48255L15.9436 4.4372ZM21.6867 12.5848C21.6867 12.3933 21.6495 12.2099 21.6321 12.0219H15.8844C14.9611 12.0219 14.0756 11.6552 13.4227 11.0023C12.7698 10.3494 12.403 9.46389 12.403 8.54057V2.79284C12.215 2.77543 12.0305 2.7383 11.8402 2.7383H6.60074C5.67742 2.7383 4.79192 3.10508 4.13904 3.75796C3.48616 4.41085 3.11937 5.29635 3.11937 6.21966V22.466C3.11937 23.3894 3.48616 24.2749 4.13904 24.9277C4.79192 25.5806 5.67742 25.9474 6.60074 25.9474H18.2053C19.1286 25.9474 20.0141 25.5806 20.667 24.9277C21.3199 24.2749 21.6867 23.3894 21.6867 22.466V12.5848Z" fill="#D29E00"/>
</svg>
