<svg width="24" height="28" viewBox="0 0 24 28" fill="none" xmlns="http://www.w3.org/2000/svg">
<path d="M20.972 6.46276L16.9267 2.41741C16.1742 1.66089 15.2792 1.0611 14.2934 0.65276C13.3076 0.244419 12.2506 0.0356316 11.1836 0.0384809H5.94412C4.40583 0.0403236 2.93107 0.652225 1.84333 1.73996C0.75559 2.8277 0.143688 4.30246 0.141846 5.84076V22.0871C0.143688 23.6254 0.75559 25.1002 1.84333 26.1879C2.93107 27.2757 4.40583 27.8876 5.94412 27.8894H17.5487C19.087 27.8876 20.5617 27.2757 21.6495 26.1879C22.7372 25.1002 23.3491 23.6254 23.351 22.0871V12.2059C23.3538 11.1388 23.145 10.0818 22.7367 9.09605C22.3283 8.11026 21.7285 7.21523 20.972 6.46276ZM19.3311 8.10365C19.6851 8.4685 19.9898 8.87815 20.2375 9.32212H15.2278C14.92 9.32212 14.6248 9.19986 14.4072 8.98223C14.1896 8.76461 14.0673 8.46944 14.0673 8.16167V3.15198C14.5113 3.39961 14.9209 3.7043 15.2858 4.0583L19.3311 8.10365ZM21.03 22.0871C21.03 23.0105 20.6633 23.896 20.0104 24.5488C19.3575 25.2017 18.472 25.5685 17.5487 25.5685H5.94412C5.02081 25.5685 4.13531 25.2017 3.48243 24.5488C2.82954 23.896 2.46276 23.0105 2.46276 22.0871V5.84076C2.46276 4.91744 2.82954 4.03194 3.48243 3.37906C4.13531 2.72618 5.02081 2.35939 5.94412 2.35939H11.1836C11.3751 2.35939 11.5584 2.39653 11.7464 2.41393V8.16167C11.7464 9.08498 12.1132 9.97048 12.7661 10.6234C13.419 11.2762 14.3045 11.643 15.2278 11.643H20.9755C20.9929 11.831 21.03 12.0144 21.03 12.2059V22.0871ZM17.2284 15.4853C17.4403 15.7082 17.555 16.0061 17.5474 16.3136C17.5398 16.621 17.4104 16.9129 17.1878 17.125L13.0229 21.0868C12.3682 21.7312 11.4854 22.0907 10.5668 22.087C9.6482 22.0833 8.76829 21.7167 8.11882 21.0671L6.33172 19.4726C6.10181 19.2677 5.96275 18.9797 5.94512 18.6722C5.93639 18.52 5.95774 18.3675 6.00794 18.2235C6.05815 18.0795 6.13622 17.9467 6.23772 17.8329C6.33921 17.7191 6.46213 17.6263 6.59947 17.56C6.7368 17.4937 6.88585 17.455 7.03811 17.4463C7.34562 17.4287 7.64754 17.5339 7.87744 17.7389L9.71676 19.3798C9.82206 19.498 9.95044 19.5935 10.094 19.6603C10.2376 19.727 10.3933 19.7637 10.5515 19.7681C10.7098 19.7724 10.8673 19.7443 11.0143 19.6855C11.1613 19.6268 11.2948 19.5385 11.4064 19.4262L15.584 15.4447C15.6945 15.3391 15.8247 15.2563 15.9673 15.2012C16.1098 15.146 16.2619 15.1196 16.4146 15.1233C16.5674 15.1271 16.718 15.161 16.8576 15.2231C16.9973 15.2853 17.1233 15.3744 17.2284 15.4853Z" fill="#4BB543"/>
</svg>
