<svg width="64" height="64" viewBox="0 0 64 64" fill="none" xmlns="http://www.w3.org/2000/svg">
<path d="M55.2106 38.5943L46.9437 43.0541L46.1612 43.4666C46.1686 43.5862 46.1737 43.7064 46.1737 43.8278C46.1737 44.0267 46.0947 44.2175 45.954 44.3581C45.8134 44.4988 45.6226 44.5778 45.4237 44.5778C45.4125 44.5778 45.4012 44.5778 45.3897 44.5771L39.6827 44.3189C38.0112 44.2435 36.3363 44.3208 34.6788 44.5498C34.5807 44.5645 34.4807 44.5595 34.3846 44.5353C34.2884 44.511 34.198 44.468 34.1186 44.4085C34.0392 44.3491 33.9724 44.2745 33.922 44.1891C33.8716 44.1037 33.8386 44.0091 33.825 43.9109C33.8114 43.8126 33.8175 43.7127 33.8428 43.6168C33.8681 43.5209 33.9121 43.4309 33.9724 43.3522C34.0327 43.2734 34.108 43.2074 34.1939 43.158C34.2799 43.1085 34.3748 43.0766 34.4732 43.0641C36.2211 42.8227 37.9874 42.7411 39.7501 42.8204L44.6001 43.0398C44.4153 42.0741 43.9 41.2029 43.1427 40.5758C42.3854 39.9487 41.4333 39.605 40.4501 39.6036H33.7586C32.4464 39.6018 31.1514 39.305 29.9693 38.7353L29.2793 38.4016C27.5675 37.5686 25.659 37.2243 23.7641 37.4066C21.8691 37.5889 20.0612 38.2907 18.5396 39.4347L16.8973 40.8972C16.1064 41.601 15.1715 42.1238 14.1578 42.4293L17.4453 53.2107L22.0596 50.2936C22.071 50.2863 22.0825 50.2793 22.0942 50.2729C23.0855 49.7166 24.2514 49.5586 25.355 49.8311L35.3875 51.6786C37.7853 52.1072 40.2573 51.7637 42.4475 50.6976L59.1541 39.2267C58.6583 38.7014 58.003 38.3547 57.2898 38.2403C56.5767 38.126 55.8457 38.2504 55.2106 38.5943Z" fill="#A059E2"/>
<path d="M46.2375 41.7308L52.834 38.1721C52.0989 37.4705 50.9478 37.0951 50.0333 37.553L44.9468 40.2936C45.3361 40.7873 45.6413 41.3419 45.8502 41.935L46.2375 41.7308Z" fill="#A059E2"/>
<path d="M12.0939 57.1347C12.2643 57.1347 12.4308 57.0842 12.5724 56.9895C12.714 56.8949 12.8244 56.7603 12.8895 56.603C12.9547 56.4456 12.9717 56.2724 12.9385 56.1053C12.9052 55.9383 12.8232 55.7848 12.7027 55.6644C12.5822 55.544 12.4288 55.462 12.2617 55.4288C12.0946 55.3955 11.9215 55.4126 11.7641 55.4778C11.6067 55.543 11.4722 55.6535 11.3776 55.7951C11.283 55.9367 11.2325 56.1033 11.2325 56.2736C11.2329 56.5019 11.3238 56.7208 11.4853 56.8822C11.6467 57.0436 11.8656 57.1344 12.0939 57.1347Z" fill="#A059E2"/>
<path d="M43.2874 37.3573C43.2815 37.3608 43.2756 37.3641 43.2695 37.3674L41.6711 38.2366C42.4445 38.4057 43.1741 38.734 43.8135 39.2007L47.167 37.3938C46.5827 37.0413 45.9146 36.8519 45.2322 36.8455C44.5498 36.8391 43.8782 37.0158 43.2874 37.3573Z" fill="#A059E2"/>
<path d="M4.84644 38.8562L7.34894 59.3762H17.7564L11.5001 38.8562H4.84644ZM14.4552 56.2734C14.4552 56.7404 14.3168 57.197 14.0574 57.5853C13.7979 57.9737 13.4292 58.2764 12.9977 58.4551C12.5662 58.6339 12.0914 58.6807 11.6334 58.5896C11.1753 58.4985 10.7546 58.2736 10.4243 57.9434C10.0941 57.6131 9.86917 57.1924 9.77806 56.7343C9.68694 56.2763 9.73371 55.8015 9.91244 55.37C10.0912 54.9386 10.3938 54.5698 10.7822 54.3103C11.1705 54.0509 11.627 53.9124 12.0941 53.9124C12.72 53.9131 13.3202 54.1621 13.7628 54.6047C14.2055 55.0473 14.4545 55.6474 14.4552 56.2734Z" fill="#A059E2"/>
<path d="M32.121 15.4812C33.2326 15.48 34.2984 15.0378 35.0844 14.2518C35.8704 13.4657 36.3126 12.4 36.3139 11.2883V8.81684C36.3139 7.70479 35.8721 6.63828 35.0858 5.85194C34.2994 5.0656 33.2329 4.62384 32.1209 4.62384C31.0088 4.62384 29.9423 5.0656 29.156 5.85194C28.3696 6.63828 27.9279 7.70479 27.9279 8.81684V11.2883C27.9291 12.4 28.3713 13.4658 29.1574 14.2518C29.9435 15.0379 31.0093 15.48 32.121 15.4812Z" fill="#A059E2"/>
<path d="M46.5786 17.0991C47.5268 17.098 48.4359 16.7209 49.1064 16.0504C49.7769 15.3799 50.1541 14.4708 50.1552 13.5226V11.3592C50.1552 10.4107 49.7784 9.50096 49.1077 8.83023C48.4369 8.15951 47.5272 7.7827 46.5787 7.7827C45.6302 7.7827 44.7205 8.15951 44.0497 8.83023C43.379 9.50096 43.0022 10.4107 43.0022 11.3592V13.5226C43.0032 14.4708 43.3803 15.3799 44.0508 16.0504C44.7213 16.7209 45.6304 17.098 46.5786 17.0991Z" fill="#A059E2"/>
<path d="M17.6431 17.0988C18.5914 17.0978 19.5005 16.7206 20.171 16.0501C20.8415 15.3796 21.2187 14.4706 21.2198 13.5223V11.3589C21.2142 10.414 20.8349 9.50975 20.1648 8.84357C19.4946 8.17739 18.5881 7.80347 17.6432 7.80347C16.6983 7.80347 15.7918 8.17739 15.1216 8.84357C14.4515 9.50975 14.0722 10.414 14.0667 11.3589V13.5223C14.0677 14.4705 14.4448 15.3796 15.1153 16.0502C15.7858 16.7207 16.6949 17.0978 17.6431 17.0988Z" fill="#A059E2"/>
<path d="M53.8608 24.3388C53.8598 23.3524 53.5053 22.399 52.8616 21.6517C52.2178 20.9043 51.3275 20.4125 50.3521 20.2654C49.887 20.7878 49.3163 21.2055 48.6777 21.491C48.0391 21.7764 47.3472 21.9231 46.6478 21.9212C45.9483 21.9194 45.2572 21.7691 44.6201 21.4804C43.9831 21.1916 43.4145 20.7709 42.9521 20.246C42.3882 20.3081 41.8436 20.4879 41.3535 20.7737C41.8099 21.6621 42.0475 22.6466 42.0466 23.6454V28.4568H53.8604L53.8608 24.3388Z" fill="#A059E2"/>
<path d="M23.6945 23.6454V30.9283H40.5472V23.6454C40.5461 22.4828 40.1246 21.3599 39.3606 20.4837C38.5965 19.6074 37.5413 19.0371 36.3897 18.8778C35.8683 19.4756 35.2246 19.9545 34.5021 20.2821C33.7796 20.6096 32.9951 20.7781 32.2019 20.7762C31.4086 20.7744 30.625 20.6021 29.904 20.2711C29.1831 19.9402 28.5416 19.4582 28.0231 18.8579C26.8395 18.9848 25.744 19.543 24.9456 20.426C24.1473 21.309 23.7019 22.455 23.6945 23.6454Z" fill="#A059E2"/>
<path d="M10.361 24.3385V28.4565H22.1945V23.6451C22.193 22.6497 22.4282 21.6683 22.8805 20.7816C22.4299 20.5176 21.933 20.3423 21.4166 20.2651C20.9515 20.7874 20.3809 21.205 19.7424 21.4904C19.104 21.7758 18.4122 21.9225 17.7129 21.9207C17.0136 21.9189 16.3226 21.7687 15.6856 21.4801C15.0486 21.1914 14.4801 20.7709 14.0177 20.2462C13.0143 20.3657 12.089 20.8475 11.4157 21.601C10.7424 22.3545 10.3673 23.3279 10.361 24.3385Z" fill="#A059E2"/>
</svg>
