<svg width="364" height="324" viewBox="0 0 364 324" fill="none" xmlns="http://www.w3.org/2000/svg">
<path d="M57.0585 105.396C74.0391 92.2015 88.1259 101.301 106.926 123.069C109.038 125.526 111.877 122.65 113.497 121.249C115.098 119.829 139.905 97.4977 141.124 96.4785C142.326 95.4047 143.781 93.4027 141.87 91.1641C137.267 85.4701 132.759 79.6999 128.348 73.8559C95.4423 30.8129 218.365 1.62007 199.492 1.16507C189.882 0.910269 151.335 0.45527 145.565 1.09227C122.215 3.54927 92.8943 25.3711 78.1341 35.5449C58.8239 48.7581 51.6167 56.5113 50.4337 57.5851C44.9737 62.3535 49.5601 73.3645 39.6593 82.0459C29.1943 91.2005 22.6605 84.2663 16.5999 89.5807C13.5969 92.2379 5.18851 98.5351 2.78611 100.628C0.36551 102.757 -0.0712903 106.343 2.40391 109.2C2.40391 109.2 25.4087 134.607 27.3379 136.864C29.2489 139.085 34.4541 141.014 37.6573 138.156C40.8787 135.317 49.1597 128.092 50.5429 126.818C51.9625 125.617 49.6329 111.148 57.0585 105.396ZM160.944 114.806C158.76 112.276 156.048 112.203 153.719 114.278L127.62 137.064C126.612 137.979 125.998 139.248 125.907 140.605C125.815 141.963 126.253 143.303 127.129 144.344L278.079 316.134C281.61 320.193 287.725 320.611 291.747 317.099L309.402 302.302C311.345 300.591 312.534 298.182 312.711 295.599C312.889 293.016 312.039 290.467 310.348 288.507L160.944 114.806ZM362.218 41.6965C360.871 32.7057 356.212 34.5803 353.791 38.3841C351.371 42.2243 340.669 58.4405 336.265 65.7933C331.897 73.0733 321.122 87.4695 301.066 73.2553C280.172 58.4951 287.434 48.1939 291.074 41.2597C294.732 34.2891 305.962 14.7423 307.582 12.3217C309.201 9.86467 307.309 2.73027 300.829 5.71507C294.332 8.69987 254.911 24.3701 249.451 46.8471C243.863 69.7063 254.128 90.1449 233.981 110.438L209.538 135.918L234.09 164.419L264.193 135.845C271.363 128.638 286.688 121.631 300.556 124.798C330.277 131.513 346.493 120.357 356.267 101.902C365.039 85.4129 363.583 50.6873 362.218 41.6965ZM49.8513 290.363C48.0308 292.197 47.0092 294.677 47.0092 297.261C47.0092 299.845 48.0308 302.325 49.8513 304.159L67.1595 321.085C70.9451 324.888 76.9511 323.287 80.7367 319.483L170.044 231.686L142.689 200.491L49.8513 290.363Z" fill="#E0E0E0" fill-opacity="0.14"/>
</svg>
