<svg width="20" height="24" viewBox="0 0 20 24" fill="none" xmlns="http://www.w3.org/2000/svg">
<path d="M10 14.8771C4.47706 14.8771 0 16.4149 0 18.3128C0 19.3443 0.000588991 20.2695 1.60797 20.8995L1.94217 20.3071C2.5505 19.2278 3.76273 18.5578 5.10541 18.5578C6.19722 18.5578 7.20305 19.0013 7.86791 19.7476H12.1321C12.7972 19.0013 13.8031 18.5578 14.8949 18.5578C16.2376 18.5578 17.4492 19.2278 18.0581 20.3071L18.3923 20.8993C19.9997 20.2695 20 19.3443 20 18.3128C20 16.4154 15.5229 14.8771 10 14.8771Z" fill="#D59344"/>
<path d="M4.32129 8.46108C4.32188 11.2774 6.86884 13.5688 9.99999 13.5688C13.1314 13.5688 15.6781 11.2774 15.6781 8.46108C15.6781 8.30537 15.6693 8.15125 15.6537 7.99872H4.34573C4.33042 8.15125 4.32129 8.30537 4.32129 8.46108Z" fill="#D59344"/>
<path d="M4.02491 7.18137H15.9741C16.4403 7.18137 16.8174 6.84188 16.8174 6.42321C16.8174 6.00427 16.4403 5.66558 15.9741 5.66558H15.7451C15.7451 3.65141 14.463 1.90814 12.5939 1.05544L12.1178 3.48325C12.0798 3.67577 11.894 3.81082 11.6838 3.81082C11.6584 3.81082 11.6328 3.80871 11.6069 3.80473C11.3675 3.76634 11.2076 3.56111 11.2506 3.34555L11.7936 0.572423C11.5901 0.27901 11.2285 0.083313 10.8149 0.083313H9.1842C8.77139 0.083313 8.40981 0.27901 8.20605 0.572423L8.7496 3.34555C8.7923 3.56111 8.63241 3.76634 8.39273 3.80473C8.36682 3.80871 8.3412 3.81082 8.31588 3.81082C8.10594 3.81082 7.91926 3.67577 7.88216 3.48325L7.40574 1.05571C5.5363 1.90814 4.25458 3.65114 4.25458 5.66558H4.02491C3.55939 5.66558 3.1825 6.00454 3.1825 6.42321C3.1825 6.84188 3.55939 7.18137 4.02491 7.18137Z" fill="#D59344"/>
<path d="M15.1368 20.7693H17.0445C16.6461 20.0638 15.8346 19.5792 14.8945 19.5792C13.9549 19.5792 13.1425 20.0638 12.7444 20.7693H7.25476C6.85667 20.0638 6.04488 19.5792 5.105 19.5792C4.16484 19.5792 3.35275 20.0638 2.95496 20.7693H4.86268L5.105 21.1469L5.49073 21.7483L5.105 22.3492L4.86268 22.7268H2.95496C3.35275 23.4323 4.16484 23.9166 5.105 23.9166C6.04458 23.9166 6.85667 23.4323 7.25476 22.7265H12.7447C13.1425 23.4323 13.9549 23.9166 14.8945 23.9166C15.8343 23.9166 16.6461 23.4323 17.0445 22.7265H15.1368L14.8945 22.3489L14.5085 21.748L14.8945 21.1467L15.1368 20.7693Z" fill="#D59344"/>
</svg>
